<svg xmlns="http://www.w3.org/2000/svg" viewBox="0 0 256 209"><g fill="none"><path fill="#2496ED" d="M255.6 107.7c-2.1-1.6-13.2-8.7-37.7-8.7c-6.2 0-12.2.4-17.8 1.1c-2.2-4.6-4.2-8.8-4.5-9.4c-1.2-2.5-3.4-4-6.1-4.1c-2.7-.1-5.1 1.2-6.5 3.5c-.1.1-5.2 8.6-7.7 13.1c-7.2-2.2-14.7-3.3-22.3-3.3c-7.6 0-15.1 1.1-22.3 3.3c-2.5-4.5-7.6-13-7.7-13.1c-1.4-2.3-3.8-3.6-6.5-3.5c-2.7.1-4.9 1.6-6.1 4.1c-.3.6-2.3 4.8-4.5 9.4c-5.6-.7-11.6-1.1-17.8-1.1c-24.5 0-35.6 7.1-37.7 8.7c-2.2 1.7-3.4 4.2-3.2 6.9c.2 2.7 1.7 5.1 4.1 6.4c.1.1 8.7 4.7 24.2 7.2c-1.2 3.2-2.2 6.5-2.9 9.9c-2.2 10.2-1.2 20.7 2.8 30.2c3.9 9.3 10.2 17.2 18.2 22.7c8.1 5.5 17.6 8.4 27.5 8.4c9.9 0 19.4-2.9 27.5-8.4c8-5.5 14.3-13.4 18.2-22.7c4-9.5 5-20 2.8-30.2c-.7-3.4-1.7-6.7-2.9-9.9c15.5-2.5 24.1-7.1 24.2-7.2c2.4-1.3 3.9-3.7 4.1-6.4c.2-2.7-1-5.2-3.2-6.9z"/><path fill="#2496ED" d="M128 0c-8.8 0-16 7.2-16 16v48c0 8.8 7.2 16 16 16s16-7.2 16-16V16c0-8.8-7.2-16-16-16z"/></g></svg>
