<svg xmlns="http://www.w3.org/2000/svg" viewBox="0 0 400 400"><g><ellipse fill="#FF9900" cx="200" cy="200" rx="200" ry="200"/><path fill="#232F3E" d="M200 60c-77.2 0-140 62.8-140 140s62.8 140 140 140s140-62.8 140-140S277.2 60 200 60zm0 260c-66.3 0-120-53.7-120-120s53.7-120 120-120s120 53.7 120 120s-53.7 120-120 120z"/><path fill="#232F3E" d="M200 100c-55.2 0-100 44.8-100 100s44.8 100 100 100s100-44.8 100-100s-44.8-100-100-100zm0 180c-44.2 0-80-35.8-80-80s35.8-80 80-80s80 35.8 80 80s-35.8 80-80 80z"/></g></svg>
