<svg xmlns="http://www.w3.org/2000/svg" viewBox="0 0 24 24" fill="#64ffda"><path d="M12 0c-6.63 0-12 5.37-12 12 0 5.3 3.438 9.8 8.205 11.385.6.113.82-.258.82-.577 0-.285-.01-1.04-.015-2.04-3.338.724-4.042-1.61-4.042-1.61-.546-1.387-1.333-1.756-1.333-1.756-1.09-.745.084-.729.084-.729 1.205.084 1.84 1.236 1.84 1.236 1.07 1.834 2.807 1.304 3.492.997.108-.775.418-1.305.762-1.605-2.665-.305-5.466-1.334-5.466-5.93 0-1.31.468-2.38 1.236-3.22-.124-.303-.535-1.523.117-3.176 0 0 1.008-.322 3.3 1.23.96-.267 1.98-.399 3-.404 1.02.005 2.04.137 3 .404 2.29-1.552 3.297-1.23 3.297-1.23.653 1.653.242 2.873.12 3.176.77.84 1.235 1.91 1.235 3.22 0 4.61-2.803 5.625-5.475 5.92.43.372.823 1.102.823 2.222 0 1.606-.015 2.898-.015 3.293 0 .322.218.694.825.576 4.765-1.587 8.2-6.086 8.2-11.384 0-6.63-5.373-12-12-12z"/></svg>
